<svg id="Layer_1" data-name="Layer 1" xmlns="http://www.w3.org/2000/svg" viewBox="0 0 362.48 110.41"><defs><style>.cls-1{fill:#aaa9a9;}.cls-2{fill:#ee4124;}.cls-3{fill:#262626;}.cls-4{fill:#292929;}.cls-5{fill:#242424;}.cls-6{fill:#232323;}.cls-7{fill:#4a4a4a;}.cls-8{fill:#c95537;}.cls-9{fill:#cb6040;}.cls-10{fill:#3f3f3e;}.cls-11{fill:#c7593a;}.cls-12{fill:#4f4f4f;}.cls-13{fill:#292a29;}.cls-14{fill:#404040;}.cls-15{fill:#404141;}.cls-16{fill:#222;}.cls-17{fill:#2d2e2d;}.cls-18{fill:#ca5c39;}.cls-19{fill:#252525;}.cls-20{fill:#272727;}.cls-21{fill:#a5d07a;}.cls-22{fill:#a7d17d;}.cls-23{fill:#323232;}.cls-24{fill:#9ccd5f;}.cls-25{fill:#ee4223;}.cls-26{fill:#abaaaa;}</style></defs><title>dig it all</title><path class="cls-1" d="M169.09,296.73c.09-7.85,7.13-14.63,15.22-14.65,7.41,0,14.6,7.22,14.65,14.76a14.94,14.94,0,1,1-29.87-.11Z" transform="translate(-119.89 -280.84)"/><path class="cls-2" d="M127.66,309.07l-1.72-.89a4.91,4.91,0,0,1-3.1-3.93,75.7,75.7,0,0,1,.1-14.9,5.39,5.39,0,0,1,2.91-3.09c3.08-.52,5.57-2.67,8.93-2.72,5.31-.07,9.72,1.53,13.31,5.42v-.06c2.25,7.45,2.52,14.5-4,20.18l0,0C138.6,311.25,133.13,310.76,127.66,309.07Z" transform="translate(-119.89 -280.84)"/><path class="cls-3" d="M227.92,346.11c1.11,4.36-1.62,6-5.62,7.13-7.43,2.09-14.14,0-17.86-6-3.19-5.11-2.3-12.48,2-17,4.57-4.75,12.8-5.73,18.87-2.23,1.28.73,2.89,1.32,1.59,3.3-1.12,1.69-2.2,1.12-3.72.29-4.29-2.38-8.7-2.39-12.57.84a9.35,9.35,0,0,0-3.41,9.34c1.28,6.5,8.78,10,14.85,7.27,2.42-1.09,1.57-2.9,1.92-4.55s-1.33-4.12,1.79-4.21c3.49-.1,1.76,2.78,2.17,4.42A6.27,6.27,0,0,1,227.92,346.11Z" transform="translate(-119.89 -280.84)"/><path class="cls-4" d="M316.17,342a41.35,41.35,0,0,1,0-5c.55-4.71,0-8.21-6.2-6.93-1.43.3-2.55-.17-2.59-2.06s1.19-2,2.59-2q8.72,0,17.43,0c1.23,0,2.36.17,2.39,1.8s-.77,2.62-2.42,2.27c-6.94-1.49-6.71,2.85-6.48,7.58.22,4.47,0,9,.06,13.45,0,1.53.18,2.91-2.16,2.95s-2.69-1.2-2.64-3.1c.07-3,0-6,0-9Z" transform="translate(-119.89 -280.84)"/><path class="cls-5" d="M465.84,340c0-3.83,0-7.65,0-11.48,0-1.43,0-2.52,2-2.58s2.44.84,2.41,2.66c-.08,5.65.21,11.32-.09,17-.19,3.65,1.2,4.71,4.56,4.33a50.25,50.25,0,0,1,5.49,0c1.34,0,2.18.47,2.2,2s-.56,2.16-2,2.15c-4.16,0-8.32,0-12.47,0-1.91,0-2.06-1-2-2.55.07-3.82,0-7.65,0-11.47Z" transform="translate(-119.89 -280.84)"/><path class="cls-6" d="M427.87,339.64c0-3.65.08-7.3,0-10.95-.05-1.82.31-2.75,2.39-2.72s2,1.26,2,2.62c0,5.81.19,11.63-.08,17.43-.15,3.15.86,4.19,3.9,3.88,2-.2,4,0,6,0,1.65,0,2.4.67,2.4,2.36s-1.11,1.76-2.32,1.78a6.54,6.54,0,0,1-1,0c-4.34-.54-10.33,2.16-12.64-1.22-2.08-3-.44-8.66-.44-13.14Z" transform="translate(-119.89 -280.84)"/><path class="cls-5" d="M180.22,340.24c0,3.49,0,7,0,10.45,0,1.62.42,3.42-2.3,3.35-2.39-.06-2-1.66-2-3.09q0-10.95,0-21.9c0-1.42-.38-3,2-3.09,2.68,0,2.32,1.66,2.31,3.34C180.19,332.94,180.21,336.59,180.22,340.24Z" transform="translate(-119.89 -280.84)"/><path class="cls-5" d="M286.19,339.92c0,3.81-.07,7.62,0,11.42,0,1.8-.3,2.78-2.39,2.7-1.93-.08-2-1.17-2-2.62,0-7.61.06-15.23,0-22.84,0-1.84.37-2.67,2.42-2.64s2,1.15,2,2.56C286.17,332.31,286.19,336.11,286.19,339.92Z" transform="translate(-119.89 -280.84)"/><path class="cls-7" d="M138.69,375.3c-3.27,1.59-7.2-.93-8,2.47s3.48,3.17,5.47,4.6,3.76,3.17,2.22,5.8c-1.94,3.3-4.76,3.47-8,1.81.15-1.17.93-.89,1.4-.9,2,0,4.4.44,4.92-2.14s-2-3.18-3.77-3.78c-3.3-1.11-5.65-3.05-3.94-6.52C131,372.64,134.49,373.67,138.69,375.3Z" transform="translate(-119.89 -280.84)"/><path class="cls-8" d="M148.09,289c-4.61-2.25-9-4.74-14.58-4.13-2.82.31-4.75,3.19-7.8,2.14a1.33,1.33,0,0,1,.42-1.84c9.19-4.73,15.26-4.22,21,1.71A2.65,2.65,0,0,1,148.09,289Z" transform="translate(-119.89 -280.84)"/><path class="cls-9" d="M144.05,309.08c5.29-5.94,3.76-13.24,4-20.18A13.06,13.06,0,0,1,144.05,309.08Z" transform="translate(-119.89 -280.84)"/><path class="cls-10" d="M146.61,374.15h11.77c-.09.44.05,1.31,0,1.31-5.37-.12-5.3,3.21-5.11,6.91.13,2.75,0,5.51,0,8.26l-1.69.07c0-2.58.1-5.17,0-7.75-.24-7.24.13-7.37-5.06-7.45C146.56,375.5,146.61,374.58,146.61,374.15Z" transform="translate(-119.89 -280.84)"/><path class="cls-11" d="M127.66,309.07l16.41,0C138.93,313.18,133.59,313.19,127.66,309.07Z" transform="translate(-119.89 -280.84)"/><path class="cls-12" d="M178.87,388c-1.64,3.83-4.94,3.51-8,2.76s-3.81-3.48-3.88-6.27.07-5.63.12-8.44c2.39.46,1.06,2.35,1.3,3.58.34,1.76-.36,3.64.46,5.38,2,5,4.59,5.53,9,1.93C178.55,387,178.62,387.53,178.87,388Z" transform="translate(-119.89 -280.84)"/><path class="cls-13" d="M213.44,390.71V374.15l1,0v16.61Z" transform="translate(-119.89 -280.84)"/><path class="cls-14" d="M254.37,340c1.48.83,4.8-1.16,4.54,1.95-.21,2.58-3.3,1.16-5,1.2-1.45,0-4.37,1.34-4.15-1.6C249.92,339,252.72,340.64,254.37,340Z" transform="translate(-119.89 -280.84)"/><path class="cls-15" d="M354.48,340.06c1.57.75,4.58-1.1,4.51,1.64-.07,3.06-3.15,1.39-4.82,1.5s-4.53,1.18-4.48-1.38C349.75,338.84,352.9,340.8,354.48,340.06Z" transform="translate(-119.89 -280.84)"/><path class="cls-16" d="M178.87,388c-.32-.35-.63-.71-.94-1.06V374.21l1.77,0C179.76,378.77,180.75,383.32,178.87,388Z" transform="translate(-119.89 -280.84)"/><path class="cls-17" d="M168.9,385c-2.34-2.64.38-6.28-1.76-9,0-.61-.31-1.4.49-1.66,1.17-.39,1.36.5,1.36,1.33C169,378.77,168.93,381.87,168.9,385Z" transform="translate(-119.89 -280.84)"/><path class="cls-18" d="M124,305.08c-4.09-5.38-4.07-10.85,0-16.17Q124,297,124,305.08Z" transform="translate(-119.89 -280.84)"/><path class="cls-19" d="M143.59,326.34c-3.71-.69-7.64-.16-11.46-.38-2.49-.15-3.54.49-3.33,3.25.28,3.48.07,7,.07,10.49a19.87,19.87,0,0,0,0,3c.6,3.73-2.12,9,1.44,10.86,3.25,1.71,8.18.72,12.27.17a13.12,13.12,0,0,0,11.8-13.22C154.55,333.35,150.49,327.63,143.59,326.34Zm-.9,23.29c-.16,0-.33,0-.5.06-8.69,1.53-9,1.15-9-10,0-.5-.17-1.09,0-1.49,1.32-2.59-3.11-7.55,3.1-8.05,7.59-.62,12.56,2.46,13.51,8C150.72,343.35,147.51,348.53,142.69,349.63Z" transform="translate(-119.89 -280.84)"/><path class="cls-20" d="M395.94,327.9a3.36,3.36,0,0,0-6.12-.21c-3.95,8.53-7.66,17.16-11.48,25.79,3.2,1.19,5.11.6,5.84-2.67.61-2.73,2.51-3.52,5.22-3.22a31,31,0,0,0,6.46,0c2.9-.31,4.85.61,5.47,3.56.66,3.17,2.78,3.22,5.93,2.48C403.41,344.83,399.77,336.32,395.94,327.9Zm-2.89,15.94c-6-.33-6.07-.1-3.56-5.75.92-2.09,1.89-4.16,2.95-6.49,2.12,2.27,2.46,5,3.73,7.28C398.25,342.57,397.69,344.09,393.05,343.84Z" transform="translate(-119.89 -280.84)"/><path class="cls-21" d="M218.12,291a7.66,7.66,0,0,0,2.09-3.83c1.1-.7,2.23-1.36,3.31-2.1,5.95-4.13,10.94-4.12,16.94,0,1.08.75,2.21,1.4,3.32,2.1,1.5,3.8,3.75,7.45,2.33,11.82a1.91,1.91,0,0,1-2.08.29,3.12,3.12,0,0,1-1.13-2.65c.37-4.79-2.75-6.66-6.49-8.22-5.85-2.45-10.64-1.08-13.75,4.45-2.11,3.77.75,6.91,1.92,10.22.51,1.42,2.56,2.42,1.1,4.33A3.27,3.27,0,0,1,222,307C215.79,302.88,217.1,296.92,218.12,291Z" transform="translate(-119.89 -280.84)"/><path class="cls-22" d="M222,307h4c4.55.73,8.93-.45,13.35-1.24a3.71,3.71,0,0,1,2.86,1.3C236.7,314.09,225.8,313.16,222,307Z" transform="translate(-119.89 -280.84)"/><path class="cls-21" d="M242.2,307.06,239,307c-.46-3.94,2.17-4.7,5.2-5.05a2.56,2.56,0,0,1-.16,2.94Z" transform="translate(-119.89 -280.84)"/><path class="cls-22" d="M244,304.87l0-2.91a2.07,2.07,0,0,1,0-3l2.12,0C246.15,301.25,246,303.4,244,304.87Z" transform="translate(-119.89 -280.84)"/><path class="cls-14" d="M202.81,378.52c-1.24-3.6-4.48-4.57-8.77-4.57-3.54-1.23-4.08,1.21-3.92,4.59.16,3.14.09,6.3.1,9.44,0,1.32-.3,2.87,1.64,3,3.5.25,7.07.35,9.66-2.6S204,381.86,202.81,378.52Zm-8,10.65c-5.75-.21-.93-4.82-3.15-6.69,2.09-1.94-2.56-6.56,3.23-6.66,4.47-.08,6.56,2.1,6.66,6.66C201.66,386.68,199.1,389.32,194.83,389.17Z" transform="translate(-119.89 -280.84)"/><path class="cls-23" d="M237.14,376.47c-3-3-6.6-3.86-10.27-.75-1,.91-2.14,1.7-1.76,3.33-.67,3.08-1.07,6.13,1,8.92,4,4.36,7.76,4.37,11.9,0C240.08,384,240.72,379.92,237.14,376.47Zm-.33,10.17c-3.17,3.51-6.4,3.3-9.68.15l-.46-1.73a12.69,12.69,0,0,1,1.47-8c2.44-1.32,5.14-2,7.26,0C238.19,379.72,237.8,383.23,236.81,386.64Z" transform="translate(-119.89 -280.84)"/><path class="cls-24" d="M244,299c0,1,0,2,0,3-1.7,1.64-4.23,2.45-5,5-4.32.76-8.64,3.67-13,0-3.51-2.69-3.79-7.11-5.66-10.67a3.18,3.18,0,0,1,.62-3.71c.67-.74,1.34-1.48,2.08-2.15,2.91-2.6,5.5-6.63,10-5.09C243,288.73,244,290.32,244,299Z" transform="translate(-119.89 -280.84)"/><circle class="cls-25" cx="16.08" cy="16.24" r="16.08"/><circle class="cls-24" cx="112.02" cy="16.08" r="16.08"/><circle class="cls-26" cx="64.05" cy="16.24" r="16.08"/></svg>