<svg height="464pt" viewBox="0 -56 464 464" width="464pt" xmlns="http://www.w3.org/2000/svg"><path d="m232 0-232 120v232h464v-232zm0 0" fill="#cc7400"/><path d="m40 32h384v320h-384zm0 0" fill="#f1f2f2"/><path d="m40 146.214844v.023437-.023437l-40-26.214844v232l186.855469-109.535156zm0 0" fill="#ffa733"/><path d="m424 146.238281v-.023437l-146.855469 96.25 186.855469 109.535156v-232l-40 26.214844zm0 0" fill="#ffa733"/><path d="m277.121094 242.480469.023437-.015625-45.144531-26.464844-45.144531 26.464844.023437.015625-.023437-.015625-186.855469 109.535156h464l-186.855469-109.535156zm0 0" fill="#ffb655"/><path d="m424.808594 145.6875 1.75-1.6875-2.558594-2.464844v4.679688zm0 0" fill="#78b9eb"/><path d="m368.535156 182.566406-21.335937 13.984375c8.09375-2.957031 15.394531-7.742187 21.335937-13.984375zm0 0" fill="#78b9eb"/><path d="m288 176v136l40-24 40 24v-136zm0 0" fill="#ea348b"/><path d="m401.679688 167.921875 6.082031 34-34.242188 4.71875-15.039062 31.121094-30.480469-16.320313-30.480469 16.320313-15.039062-31.121094-34.242188-4.71875 6.082031-34-24.878906-23.921875 24.878906-23.921875-6.082031-34 34.242188-4.71875 15.039062-31.121094 30.480469 16.320313 30.480469-16.320313 15.039062 31.121094 34.242188 4.71875-6.082031 34 24.878906 23.921875zm0 0" fill="#ffda44"/><path d="m384 144c0 30.929688-25.070312 56-56 56s-56-25.070312-56-56 25.070312-56 56-56 56 25.070312 56 56zm0 0" fill="#ff5023"/><path d="m320 179.3125-29.65625-29.65625 11.3125-11.3125 18.34375 18.34375 34.34375-34.34375 11.3125 11.3125zm0 0" fill="#f1f2f2"/></svg>