<svg height="472pt" viewBox="-67 0 471 472" width="472pt" xmlns="http://www.w3.org/2000/svg"><path d="m288.5 128v32c-22.078125-28.878906-38.640625-38.960938-56-39.921875l43.121094-48.078125c8.238281 16.878906 12.878906 35.921875 12.878906 56zm0 0" fill="#434a54"/><path d="m107.78125 147.839844c-17.203125 1.199218-36.800781.960937-59.28125-1.679688-5.199219-.558594-10.480469-1.28125-16-2.160156v-16c0-70.71875 57.359375-128 128-128 50.640625 0 94.398438 29.359375 115.121094 72l-43.121094 48.078125c-10.320312-.550781-20.878906 2.167969-33.121094 6.082031-22.398437 7.28125-50.238281 18.71875-91.597656 21.679688zm0 0" fill="#656d78"/><path d="m275.621094 72-22.875 25.503906c2.394531 9.785156 3.730468 19.984375 3.730468 30.496094v.199219c2.253907 1.425781 4.550782 3.082031 6.886719 4.953125.199219.160156.394531.289062.59375.457031 1.101563.902344 2.222657 1.855469 3.351563 2.863281 1.503906 1.335938 3.023437 2.757813 4.566406 4.289063.777344.78125 1.570312 1.605469 2.359375 2.4375 1.914063 1.984375 3.851563 4.097656 5.832031 6.402343.402344.460938.816406.964844 1.210938 1.4375 2.351562 2.777344 4.742187 5.722657 7.222656 8.960938v-32c0-20.078125-4.640625-39.121094-12.878906-56zm0 0" fill="#353b44"/><path d="m144.707031 1.078125s-.023437 0-.03125 0c43.648438 5.515625 80.441407 32.90625 98.914063 70.921875 3.925781 8.046875 6.972656 16.609375 9.15625 25.503906l22.875-25.503906c-20.722656-42.640625-64.480469-72-115.121094-72-3.414062 0-6.769531.246094-10.113281.503906-1.894531.175782-3.789063.335938-5.679688.574219zm0 0" fill="#434a54"/><path d="m288.5 160v40c0 46.007812-25.921875 86.007812-64 106.167969-16.71875 8.808593-35.761719 13.839843-56 13.839843s-39.28125-5.039062-56-13.839843c-38.078125-20.160157-64-60.160157-64-106.167969v-53.839844c22.480469 2.640625 42.078125 2.878906 59.28125 1.6875-12 14.074219-19.28125 32.230469-19.28125 52.152344 0 44.167969 35.839844 80.007812 80 80.007812s80-35.839843 80-80.007812c0-33.28125-20.320312-61.761719-49.121094-73.839844 12.234375-3.914062 22.800782-6.632812 33.121094-6.082031 17.359375.960937 33.921875 11.042969 56 39.921875zm0 0" fill="#eac6bb"/><path d="m201.164062 126.984375c-.152343-.417969-.304687-.824219-.457031-1.222656-.453125.140625-.871093.246093-1.328125.398437.617188.253906 1.191406.550782 1.785156.824219zm0 0" fill="#d3b1a9"/><path d="m256.46875 128.199219v71.800781c0 46.007812-25.921875 86.007812-64 106.167969-12.226562 6.441406-25.710938 10.832031-39.984375 12.753906 5.238281.703125 10.574219 1.09375 16.015625 1.09375 20.238281 0 39.28125-5.039063 56-13.839844 38.078125-20.160156 64-60.160156 64-106.167969v-40c-11.96875-15.664062-22.296875-25.65625-32.03125-31.808593zm0 0" fill="#d3b1a9"/><path d="m199.378906 126.160156c28.800782 12.078125 49.121094 40.558594 49.121094 73.839844 0 44.167969-35.839844 80.007812-80 80.007812s-80-35.839843-80-80.007812c0-19.921875 7.28125-38.078125 19.28125-52.160156 41.359375-2.960938 69.199219-14.398438 91.597656-21.679688zm0 0" fill="#ed5565"/><path d="m199.378906 126.160156c-6.078125 1.976563-12.597656 4.253906-19.640625 6.59375 22.050781 14.238282 36.730469 38.988282 36.730469 67.246094 0 38.679688-27.496094 70.96875-63.984375 78.398438 5.167969 1.058593 10.527344 1.609374 16.015625 1.609374 44.160156 0 80-35.839843 80-80.007812 0-33.28125-20.320312-61.761719-49.121094-73.839844zm0 0" fill="#da4453"/><path d="m192.5 358-16 26h-16l-16-26 24-6zm0 0" fill="#ed5565"/><path d="m224.5 306.167969v37.832031l-24 16-32-8-32 8-24-16v-37.832031c16.71875 8.808593 35.761719 13.839843 56 13.839843s39.28125-5.039062 56-13.839843zm0 0" fill="#e6e9ed"/><path d="m176.5 384 16 88h-48l16-88zm0 0" fill="#da4453"/><path d="m200.5 360 24-16h48c35.359375 0 64 28.640625 64 64v56c0 4.398438-3.601562 8-8 8h-136l-16-88 16-26zm64 56h-24v24h48v-24zm0 0" fill="#ccd1d9"/><path d="m272.5 344h-32.03125c35.359375 0 64 28.640625 64 64v56c0 4.398438-3.601562 8-8 8h32.03125c4.398438 0 8-3.601562 8-8v-56c0-35.359375-28.640625-64-64-64zm0 0" fill="#aab2bd"/><path d="m144.5 358 16 26-16 88h-136c-4.398438 0-8-3.601562-8-8v-56c0-35.359375 28.640625-64 64-64h48l24 16zm0 0" fill="#ccd1d9"/><path d="m264.5 432.015625c-4.425781 0-8-3.574219-8-8v-8c0-4.421875 3.574219-8 8-8s8 3.578125 8 8v8c0 4.425781-3.574219 8-8 8zm0 0" fill="#e6e9ed"/><g fill="#fff"><path d="m168.5 240.015625c-4.425781 0-8-3.574219-8-8v-40c0-4.414063 3.574219-8 8-8s8 3.585937 8 8v40c0 4.425781-3.574219 8-8 8zm0 0"/><path d="m168.738281 176.007812c-4.421875 0-8.039062-3.582031-8.039062-8 0-4.414062 3.535156-8 7.953125-8h.085937c4.417969 0 8 3.585938 8 8 0 4.417969-3.582031 8-8 8zm0 0"/><path d="m288.5 416v24h-48v-24zm0 0"/></g></svg>