<svg height="464pt" viewBox="0 -4 464.61593 464" width="464pt" xmlns="http://www.w3.org/2000/svg"><path d="m396.675781 113.191406c-13.75-61.789062-66.242187-107.351562-129.347656-112.277344-63.109375-4.929687-122.035156 31.933594-145.210937 90.835938-44.757813-12.652344-92.152344 8.597656-112.472657 50.4375-20.320312 41.839844-7.722656 92.230469 29.898438 119.585938 37.617187 27.355468 89.433593 23.804687 122.972656-8.421876 50.863281 43.761719 125.265625 46.421876 179.121094 6.398438 27.480469 17.503906 62.832031 16.59375 89.375-2.300781s38.972656-52 31.429687-83.695313c-7.542968-31.699218-33.554687-55.652344-65.765625-60.5625zm0 0" fill="#4891d3"/><path d="m384.117188 112.070312c-27.210938 0-52.558594 13.832032-67.28125 36.71875 31.660156-20.359374 73.226562-15.898437 99.84375 10.71875 26.617187 26.613282 31.078124 68.183594 10.71875 99.84375 29.847656-19.207031 43.476562-55.78125 33.46875-89.835937-10.007813-34.054687-41.253907-57.445313-76.75-57.445313zm0 0" fill="#57b7eb"/><path d="m355.558594 117.429688c9.105468-3.542969 18.789062-5.359376 28.558594-5.359376 4.210937.003907 8.414062.378907 12.558593 1.121094-12.238281-55.300781-55.757812-98.289062-111.199219-109.851562-55.445312-11.5625-112.519531 10.453125-145.839843 56.25 35.125-25.46875 79.863281-33.738282 121.773437-22.515625 41.910156 11.222656 76.527344 40.742187 94.226563 80.355469zm0 0" fill="#57b7eb"/><path d="m80.117188 120.070312c30.058593.019532 58.371093 14.121094 76.5 38.09375 18.128906 23.976563 23.984374 55.058594 15.820312 83.984376 23.585938-30.714844 26.40625-72.59375 7.152344-106.191407-19.253906-33.601562-56.808594-52.34375-95.234375-47.527343-38.425781 4.816406-70.195313 32.246093-80.558594 69.558593 18.128906-23.855469 46.355469-37.882812 76.320313-37.917969zm0 0" fill="#57b7eb"/><g fill="#a1d51c"><path d="m201.714844 214.550781c-.792969.121094-1.601563.121094-2.398438 0l-74.800781-23.359375c-2.027344-.644531-3.71875-2.070312-4.695313-3.960937-.972656-1.890625-1.15625-4.09375-.503906-6.121094 1.339844-4.183594 5.804688-6.507813 10-5.199219l74.800782 23.359375c3.714843 1.222657 6.003906 4.949219 5.410156 8.816407-.59375 3.867187-3.898438 6.738281-7.8125 6.785156zm0 0"/><path d="m126.277344 174.789062c-3.875.089844-7.257813-2.613281-8.027344-6.414062-.769531-3.796875 1.300781-7.601562 4.90625-9.023438l107.761719-45.363281c4.085937-1.699219 8.777343.234375 10.480469 4.320313 1.699218 4.089844-.234376 8.78125-4.320313 10.480468l-107.761719 45.359376c-.960937.410156-1.996094.628906-3.039062.640624zm0 0"/><path d="m239.316406 192.949219c-.609375.078125-1.230468.078125-1.839844 0-4.269531-.992188-6.945312-5.238281-6-9.519531l11.441407-49.601563c.476562-2.066406 1.753906-3.863281 3.554687-4.988281 1.800782-1.125 3.976563-1.488282 6.042969-1.011719 2.070313.476563 3.867187 1.757813 4.992187 3.558594s1.488282 3.972656 1.007813 6.042969l-11.4375 49.519531c-.914063 3.539062-4.109375 6.007812-7.761719 6zm0 0"/><path d="m225.714844 390.46875c-.789063.15625-1.605469.15625-2.398438 0l-91.199218-28.800781c-2.953126-.65625-5.28125-2.921875-6.019532-5.855469-.738281-2.929688.242188-6.027344 2.527344-8.003906 2.289062-1.976563 5.496094-2.496094 8.292969-1.339844l91.199219 28.800781c3.714843 1.222657 6.003906 4.949219 5.410156 8.816407-.59375 3.867187-3.898438 6.738281-7.8125 6.785156zm0 0"/><path d="m126.757812 329.429688c-2.128906.011718-4.171874-.824219-5.679687-2.320313-1.515625-1.5-2.367187-3.546875-2.367187-5.679687 0-2.132813.851562-4.175782 2.367187-5.679688l82.71875-82.71875c3.136719-3.136719 8.222656-3.136719 11.359375 0s3.136719 8.222656 0 11.359375l-82.71875 82.71875c-1.511719 1.496094-3.554688 2.332031-5.679688 2.320313zm0 0"/><path d="m251.796875 368.46875c-4.015625.039062-7.4375-2.902344-8-6.878906l-15.28125-112.878906c-.382813-4.230469 2.601563-8.023438 6.800781-8.640626 4.375-.617187 8.421875 2.425782 9.039063 6.800782l15.359375 112.878906c.210937 4.109375-2.730469 7.707031-6.796875 8.320312zm0 0"/></g><path d="m280.117188 112.070312c0 13.253907-10.746094 24-24 24-13.253907 0-24-10.746093-24-24 0-13.253906 10.746093-24 24-24 13.253906 0 24 10.746094 24 24zm0 0" fill="#f9e109"/><path d="m248.117188 96.070312c.035156-2.335937.414062-4.652343 1.121093-6.878906-11.054687 3.222656-18.261719 13.84375-17.175781 25.304688 1.089844 11.464844 10.164062 20.539062 21.628906 21.625 11.460938 1.089844 22.082032-6.117188 25.304688-17.171875-2.226563.707031-4.542969 1.085937-6.878906 1.121093-13.253907 0-24-10.746093-24-24zm0 0" fill="#fcbc04"/><path d="m376.117188 232.070312v-48h24l-40-48-40 48h24v48" fill="#c4f236"/><path d="m360.117188 184.070312v-48l-40 48h24v48h32v-12.320312c-10.15625-9.082031-15.972657-22.054688-16-35.679688zm0 0" fill="#a1d51c"/><path d="m264.117188 216.070312c0 17.671876-14.328126 32-32 32-17.671876 0-32-14.328124-32-32 0-17.671874 14.328124-32 32-32 17.671874 0 32 14.328126 32 32zm0 0" fill="#f9e109"/><path d="m221.476562 194.710938c.023438-3.097657.507813-6.167969 1.441407-9.121094-14.558594 4.484375-23.941407 18.605468-22.425781 33.765625 1.515624 15.15625 13.503906 27.144531 28.660156 28.660156 15.15625 1.511719 29.28125-7.867187 33.765625-22.425781-2.953125.929687-6.027344 1.417968-9.121094 1.441406-8.597656.085938-16.867187-3.292969-22.949219-9.371094-6.078125-6.082031-9.457031-14.351562-9.371094-22.949218zm0 0" fill="#fcbc04"/><path d="m288.117188 392.070312c0 17.671876-14.328126 32-32 32-17.671876 0-32-14.328124-32-32 0-17.671874 14.328124-32 32-32 17.671874 0 32 14.328126 32 32zm0 0" fill="#f9e109"/><path d="m245.476562 370.710938c.023438-3.097657.507813-6.167969 1.441407-9.121094-14.558594 4.484375-23.941407 18.605468-22.425781 33.765625 1.515624 15.15625 13.503906 27.144531 28.660156 28.660156 15.15625 1.511719 29.28125-7.867187 33.765625-22.425781-2.953125.929687-6.027344 1.417968-9.121094 1.441406-8.597656.085938-16.867187-3.292969-22.949219-9.371094-6.078125-6.082031-9.457031-14.351562-9.371094-22.949218zm0 0" fill="#fcbc04"/><path d="m136.117188 344.070312c0 17.671876-14.328126 32-32 32-17.671876 0-32-14.328124-32-32 0-17.671874 14.328124-32 32-32 17.671874 0 32 14.328126 32 32zm0 0" fill="#f9e109"/><path d="m93.476562 322.710938c.023438-3.097657.507813-6.167969 1.441407-9.121094-14.558594 4.484375-23.941407 18.605468-22.425781 33.765625 1.515624 15.15625 13.503906 27.144531 28.660156 28.660156 15.15625 1.511719 29.28125-7.867187 33.765625-22.425781-2.953125.929687-6.027344 1.417968-9.121094 1.441406-8.597656.085938-16.867187-3.292969-22.949219-9.371094-6.078125-6.082031-9.457031-14.351562-9.371094-22.949218zm0 0" fill="#fcbc04"/><path d="m128.117188 176.070312c0 13.253907-10.746094 24-24 24-13.253907 0-24-10.746093-24-24 0-13.253906 10.746093-24 24-24 13.253906 0 24 10.746094 24 24zm0 0" fill="#f9e109"/><path d="m96.117188 160.070312c.035156-2.335937.414062-4.652343 1.121093-6.878906-11.054687 3.222656-18.261719 13.84375-17.175781 25.304688 1.089844 11.464844 10.164062 20.539062 21.628906 21.625 11.460938 1.089844 22.082032-6.117188 25.304688-17.171875-2.226563.707031-4.542969 1.085937-6.878906 1.121093-13.253907 0-24-10.746093-24-24zm0 0" fill="#fcbc04"/><path d="m384.117188 328.070312h48c8.835937 0 16 7.164063 16 16v96c0 8.835938-7.164063 16-16 16h-48c-8.835938 0-16-7.164062-16-16v-96c0-8.835937 7.164062-16 16-16zm0 0" fill="#4891d3"/><path d="m368.117188 416.070312h80v24c0 8.835938-7.164063 16-16 16h-48c-8.835938 0-16-7.164062-16-16zm0 0" fill="#a1d51c"/><path d="m384.117188 416.070312h64v16h-48c-8.835938 0-16-7.164062-16-16zm0 0" fill="#c4f236"/><path d="m384.117188 328.070312h48c8.835937 0 16 7.164063 16 16v56h-16c-26.511719 0-48-21.492187-48-48zm0 0" fill="#57b7eb"/><path d="m336.117188 400.070312h-16c-4.417969 0-8-3.582031-8-8 0-4.417968 3.582031-8 8-8h16c4.417968 0 8 3.582032 8 8 0 4.417969-3.582032 8-8 8zm0 0" fill="#a1d51c"/></svg>