<?xml version="1.0" encoding="utf-8"?>
<!-- Generator: Adobe Illustrator 22.1.0, SVG Export Plug-In . SVG Version: 6.00 Build 0)  -->
<svg version="1.1" id="Layer_1" xmlns="http://www.w3.org/2000/svg" xmlns:xlink="http://www.w3.org/1999/xlink" x="0px" y="0px"
	 viewBox="0 0 362.5 110.4" style="enable-background:new 0 0 362.5 110.4;" xml:space="preserve">
<style type="text/css">
	.st0{fill:#AAA9A9;}
	.st1{fill:#EE4124;}
	.st2{fill:#FCFCFC;}
	.st3{fill:#C95537;}
	.st4{fill:#CB6040;}
	.st5{fill:#C7593A;}
	.st6{fill:#CA5C39;}
	.st7{fill:#A5D07A;}
	.st8{fill:#A7D17D;}
	.st9{fill:#9CCD5F;}
	.st10{fill:#EE4223;}
	.st11{fill:#ABAAAA;}
</style>
<title>dig it all</title>
<path class="st0" d="M49.2,15.9C49.3,8,56.3,1.3,64.4,1.2C71.8,1.2,79,8.5,79.1,16c0.2,8.2-6.4,15.1-14.6,15.3
	c-8.2,0.2-15.1-6.4-15.3-14.6C49.2,16.4,49.2,16.1,49.2,15.9L49.2,15.9z"/>
<path class="st1" d="M7.8,28.2l-1.7-0.9c-1.7-0.6-2.9-2.2-3.1-3.9c-0.5-5-0.4-9.9,0.1-14.9C3.6,7.1,4.6,6,6,5.4
	c3.1-0.5,5.6-2.7,8.9-2.7c5.3-0.1,9.7,1.5,13.3,5.4V8.1c2.3,7.5,2.5,14.5-4,20.2l0,0C18.7,30.4,13.2,29.9,7.8,28.2z"/>
<path class="st2" d="M108,65.3c1.1,4.4-1.6,6-5.6,7.1c-7.4,2.1-14.1,0-17.9-6c-3.2-5.1-2.3-12.5,2-17c4.6-4.8,12.8-5.7,18.9-2.2
	c1.3,0.7,2.9,1.3,1.6,3.3c-1.1,1.7-2.2,1.1-3.7,0.3c-4.3-2.4-8.7-2.4-12.6,0.8c-2.8,2.2-4.2,5.8-3.4,9.3c1.3,6.5,8.8,10,14.9,7.3
	c2.4-1.1,1.6-2.9,1.9-4.5s-1.3-4.1,1.8-4.2c3.5-0.1,1.8,2.8,2.2,4.4C108.1,64.3,108.1,64.8,108,65.3z"/>
<path class="st2" d="M196.3,61.2c-0.1-1.7-0.1-3.3,0-5c0.5-4.7,0-8.2-6.2-6.9c-1.4,0.3-2.5-0.2-2.6-2.1s1.2-2,2.6-2
	c5.8,0,11.6,0,17.4,0c1.2,0,2.4,0.2,2.4,1.8s-0.8,2.6-2.4,2.3c-6.9-1.5-6.7,2.9-6.5,7.6c0.2,4.5,0,9,0.1,13.5c0,1.5,0.2,2.9-2.2,3
	s-2.7-1.2-2.6-3.1C196.3,67.1,196.3,64.1,196.3,61.2L196.3,61.2z"/>
<path class="st2" d="M346,59.2c0-3.8,0-7.6,0-11.5c0-1.4,0-2.5,2-2.6s2.4,0.8,2.4,2.7c-0.1,5.6,0.2,11.3-0.1,17
	c-0.2,3.6,1.2,4.7,4.6,4.3c1.8-0.1,3.7-0.1,5.5,0c1.3,0,2.2,0.5,2.2,2s-0.6,2.2-2,2.1c-4.2,0-8.3,0-12.5,0c-1.9,0-2.1-1-2-2.5
	C346.1,66.9,346,63,346,59.2L346,59.2z"/>
<path class="st2" d="M308,58.8c0-3.6,0.1-7.3,0-11c0-1.8,0.3-2.8,2.4-2.7s2,1.3,2,2.6c0,5.8,0.2,11.6-0.1,17.4
	c-0.2,3.1,0.9,4.2,3.9,3.9c2-0.2,4,0,6,0c1.7,0,2.4,0.7,2.4,2.4s-1.1,1.8-2.3,1.8c-0.3,0-0.7,0-1,0c-4.3-0.5-10.3,2.2-12.6-1.2
	c-2.1-3-0.4-8.7-0.4-13.1L308,58.8z"/>
<path class="st2" d="M60.3,59.4c0,3.5,0,7,0,10.5c0,1.6,0.4,3.4-2.3,3.4c-2.4-0.1-2-1.7-2-3.1c0-7.3,0-14.6,0-21.9
	c0-1.4-0.4-3,2-3.1c2.7,0,2.3,1.7,2.3,3.3C60.3,52.1,60.3,55.8,60.3,59.4z"/>
<path class="st2" d="M166.3,59.1c0,3.8-0.1,7.6,0,11.4c0,1.8-0.3,2.8-2.4,2.7c-1.9-0.1-2-1.2-2-2.6c0-7.6,0.1-15.2,0-22.8
	c0-1.8,0.4-2.7,2.4-2.6s2,1.1,2,2.6C166.3,51.5,166.3,55.3,166.3,59.1z"/>
<path class="st2" d="M18.8,94.5c-3.3,1.6-7.2-0.9-8,2.5s3.5,3.2,5.5,4.6s3.8,3.2,2.2,5.8c-1.9,3.3-4.8,3.5-8,1.8
	c0.1-1.2,0.9-0.9,1.4-0.9c2,0,4.4,0.4,4.9-2.1s-2-3.2-3.8-3.8c-3.3-1.1-5.7-3-3.9-6.5C11.1,91.8,14.6,92.8,18.8,94.5z"/>
<path class="st3" d="M28.2,8.2c-4.6-2.3-9-4.7-14.6-4.1c-2.8,0.3-4.8,3.2-7.8,2.1C5.4,5.5,5.6,4.7,6.2,4.3c0,0,0,0,0,0
	c9.2-4.7,15.3-4.2,21,1.7C27.9,6.6,28.2,7.3,28.2,8.2z"/>
<path class="st4" d="M24.2,28.2c5.3-5.9,3.8-13.2,4-20.2c4.7,5.5,4.1,13.7-1.4,18.4C26,27.2,25.1,27.8,24.2,28.2z"/>
<path class="st2" d="M26.7,93.3h11.8c-0.1,0.4,0.1,1.3,0,1.3c-5.4-0.1-5.3,3.2-5.1,6.9c0.1,2.8,0,5.5,0,8.3l-1.7,0.1
	c0-2.6,0.1-5.2,0-7.8c-0.2-7.2,0.1-7.4-5.1-7.5C26.7,94.7,26.7,93.7,26.7,93.3z"/>
<path class="st5" d="M7.8,28.2h16.4C19,32.3,13.7,32.4,7.8,28.2z"/>
<path class="st2" d="M59,107.2c-1.6,3.8-4.9,3.5-8,2.8s-3.8-3.5-3.9-6.3s0.1-5.6,0.1-8.4c2.4,0.5,1.1,2.4,1.3,3.6
	c0.3,1.8-0.4,3.6,0.5,5.4c2,5,4.6,5.5,9,1.9C58.7,106.2,58.7,106.7,59,107.2z"/>
<path class="st2" d="M93.6,109.9V93.3h1v16.6L93.6,109.9z"/>
<path class="st2" d="M134.5,59.2c1.5,0.8,4.8-1.2,4.5,2c-0.2,2.6-3.3,1.2-5,1.2c-1.4,0-4.4,1.3-4.1-1.6
	C130,58.2,132.8,59.8,134.5,59.2z"/>
<path class="st2" d="M234.6,59.2c1.6,0.8,4.6-1.1,4.5,1.6c-0.1,3.1-3.1,1.4-4.8,1.5s-4.5,1.2-4.5-1.4C229.9,58,233,60,234.6,59.2z"
	/>
<path class="st2" d="M59,107.2c-0.3-0.4-0.6-0.7-0.9-1.1V93.4h1.8C59.9,97.9,60.9,102.5,59,107.2z"/>
<path class="st2" d="M49,104.2c-2.3-2.6,0.4-6.3-1.8-9c0-0.6-0.3-1.4,0.5-1.7c1.2-0.4,1.4,0.5,1.4,1.3C49.1,97.9,49,101,49,104.2z"
	/>
<path class="st6" d="M4.1,24.2C0,18.9,0,13.4,4.1,8.1C4.1,13.5,4.1,18.9,4.1,24.2z"/>
<path class="st2" d="M23.7,45.5c-3.7-0.7-7.6-0.2-11.5-0.4c-2.5-0.1-3.5,0.5-3.3,3.3c0.3,3.5,0.1,7,0.1,10.5c-0.1,1-0.1,2,0,3
	c0.6,3.7-2.1,9,1.4,10.9c3.3,1.7,8.2,0.7,12.3,0.2c6.8-0.7,11.9-6.4,11.8-13.2C34.7,52.5,30.6,46.8,23.7,45.5z M22.8,68.8
	c-0.2,0-0.3,0-0.5,0.1c-8.7,1.5-9,1.1-9-10c0-0.5-0.2-1.1,0-1.5c1.3-2.6-3.1-7.5,3.1-8c7.6-0.6,12.6,2.5,13.5,8
	C30.8,62.5,27.6,67.7,22.8,68.8z"/>
<path class="st2" d="M276,47.1c-0.7-1.7-2.7-2.5-4.4-1.8c-0.8,0.3-1.4,0.9-1.7,1.6c-4,8.5-7.7,17.2-11.5,25.8
	c3.2,1.2,5.1,0.6,5.8-2.7c0.6-2.7,2.5-3.5,5.2-3.2c2.1,0.2,4.3,0.2,6.5,0c2.9-0.3,4.9,0.6,5.5,3.6c0.7,3.2,2.8,3.2,5.9,2.5
	C283.5,64,279.9,55.5,276,47.1z M273.2,63c-6-0.3-6.1-0.1-3.6-5.8c0.9-2.1,1.9-4.2,3-6.5c2.1,2.3,2.5,5,3.7,7.3
	C278.4,61.7,277.8,63.3,273.2,63z"/>
<path class="st7" d="M98.2,10.2c1.1-1,1.8-2.4,2.1-3.8c1.1-0.7,2.2-1.4,3.3-2.1c5.9-4.1,10.9-4.1,16.9,0c1.1,0.8,2.2,1.4,3.3,2.1
	c1.5,3.8,3.8,7.5,2.3,11.8c-0.6,0.5-1.4,0.6-2.1,0.3c-0.8-0.6-1.2-1.6-1.1-2.6c0.4-4.8-2.8-6.7-6.5-8.2c-5.9-2.5-10.6-1.1-13.8,4.5
	c-2.1,3.8,0.8,6.9,1.9,10.2c0.5,1.4,2.6,2.4,1.1,4.3c-1.2,0.6-2.7,0.5-3.7-0.4C95.9,22,97.2,16.1,98.2,10.2z"/>
<path class="st8" d="M102.1,26.2h4c4.6,0.7,8.9-0.5,13.4-1.2c1.1,0,2.1,0.5,2.9,1.3C116.8,33.3,105.9,32.3,102.1,26.2z"/>
<path class="st7" d="M122.3,26.2l-3.2-0.1c-0.5-3.9,2.2-4.7,5.2-5c0.6,0.9,0.5,2.1-0.2,2.9L122.3,26.2z"/>
<path class="st8" d="M124.1,24v-2.9c-0.8-0.8-0.9-2.1-0.1-2.9c0,0,0,0,0.1-0.1h2.1C126.3,20.4,126.1,22.6,124.1,24z"/>
<path class="st2" d="M82.9,97.7c-1.2-3.6-4.5-4.6-8.8-4.6c-3.5-1.2-4.1,1.2-3.9,4.6c0.2,3.1,0.1,6.3,0.1,9.4c0,1.3-0.3,2.9,1.6,3
	c3.5,0.3,7.1,0.4,9.7-2.6S84.1,101,82.9,97.7z M74.9,108.3c-5.8-0.2-0.9-4.8-3.1-6.7c2.1-1.9-2.6-6.6,3.2-6.7
	c4.5-0.1,6.6,2.1,6.7,6.7C81.8,105.8,79.2,108.5,74.9,108.3L74.9,108.3z"/>
<path class="st2" d="M117.3,95.6c-3-3-6.6-3.9-10.3-0.8c-1,0.9-2.1,1.7-1.8,3.3c-0.7,3.1-1.1,6.1,1,8.9c4,4.4,7.8,4.4,11.9,0
	C120.2,103.2,120.8,99.1,117.3,95.6z M116.9,105.8c-3.2,3.5-6.4,3.3-9.7,0.1l-0.5-1.7c-0.4-2.8,0.1-5.6,1.5-8c2.4-1.3,5.1-2,7.3,0
	C118.3,98.9,117.9,102.4,116.9,105.8z"/>
<path class="st9" d="M124.1,18.2c0,1,0,2,0,3c-1.7,1.6-4.2,2.5-5,5c-4.3,0.8-8.6,3.7-13,0c-3.5-2.7-3.8-7.1-5.7-10.7
	c-0.6-1.2-0.4-2.7,0.6-3.7c0.7-0.7,1.3-1.5,2.1-2.1c2.9-2.6,5.5-6.6,10-5.1C123.1,7.9,124.1,9.5,124.1,18.2z"/>
<circle class="st10" cx="16.1" cy="16.2" r="16.1"/>
<circle class="st9" cx="112" cy="16.1" r="16.1"/>
<circle class="st11" cx="64.1" cy="16.2" r="16.1"/>
</svg>
